<mxfile host="app.diagrams.net" agent="Mozilla/5.0 (Macintosh; Intel Mac OS X 10_15_7) AppleWebKit/605.1.15 (KHTML, like Gecko) Version/18.5 Safari/605.1.15" version="27.1.1">
  <diagram name="Page-1" id="-WR8DfkSUxg_KBe9YU5m">
    <mxGraphModel dx="1048" dy="623" grid="1" gridSize="10" guides="1" tooltips="1" connect="1" arrows="1" fold="1" page="1" pageScale="1" pageWidth="850" pageHeight="1100" math="0" shadow="0">
      <root>
        <mxCell id="0" />
        <mxCell id="1" parent="0" />
        <mxCell id="0SsIEOhFhzTk_DGAFsbN-10" value="" style="edgeStyle=none;curved=1;rounded=0;orthogonalLoop=1;jettySize=auto;html=1;fontSize=12;startSize=8;endSize=8;entryX=0.5;entryY=0;entryDx=0;entryDy=0;" edge="1" parent="1" source="0SsIEOhFhzTk_DGAFsbN-2" target="0SsIEOhFhzTk_DGAFsbN-9">
          <mxGeometry relative="1" as="geometry" />
        </mxCell>
        <mxCell id="0SsIEOhFhzTk_DGAFsbN-14" value="" style="edgeStyle=none;curved=1;rounded=0;orthogonalLoop=1;jettySize=auto;html=1;fontSize=12;startSize=8;endSize=8;entryX=0.5;entryY=0;entryDx=0;entryDy=0;" edge="1" parent="1" source="0SsIEOhFhzTk_DGAFsbN-2" target="0SsIEOhFhzTk_DGAFsbN-13">
          <mxGeometry relative="1" as="geometry" />
        </mxCell>
        <mxCell id="0SsIEOhFhzTk_DGAFsbN-16" value="" style="edgeStyle=none;curved=1;rounded=0;orthogonalLoop=1;jettySize=auto;html=1;fontSize=12;startSize=8;endSize=8;" edge="1" parent="1" source="0SsIEOhFhzTk_DGAFsbN-2" target="0SsIEOhFhzTk_DGAFsbN-15">
          <mxGeometry relative="1" as="geometry" />
        </mxCell>
        <mxCell id="0SsIEOhFhzTk_DGAFsbN-18" value="" style="edgeStyle=none;curved=1;rounded=0;orthogonalLoop=1;jettySize=auto;html=1;fontSize=12;startSize=8;endSize=8;entryX=0.5;entryY=0;entryDx=0;entryDy=0;" edge="1" parent="1" source="0SsIEOhFhzTk_DGAFsbN-2" target="0SsIEOhFhzTk_DGAFsbN-17">
          <mxGeometry relative="1" as="geometry" />
        </mxCell>
        <mxCell id="0SsIEOhFhzTk_DGAFsbN-20" value="" style="edgeStyle=none;curved=1;rounded=0;orthogonalLoop=1;jettySize=auto;html=1;fontSize=12;startSize=8;endSize=8;entryX=0.5;entryY=0;entryDx=0;entryDy=0;" edge="1" parent="1" source="0SsIEOhFhzTk_DGAFsbN-2" target="0SsIEOhFhzTk_DGAFsbN-19">
          <mxGeometry relative="1" as="geometry" />
        </mxCell>
        <mxCell id="0SsIEOhFhzTk_DGAFsbN-2" value="ContentView" style="whiteSpace=wrap;html=1;rounded=0;" vertex="1" parent="1">
          <mxGeometry x="370" y="430" width="120" height="50" as="geometry" />
        </mxCell>
        <mxCell id="0SsIEOhFhzTk_DGAFsbN-9" value="SettingsView" style="whiteSpace=wrap;html=1;rounded=0;" vertex="1" parent="1">
          <mxGeometry x="520" y="610" width="120" height="50" as="geometry" />
        </mxCell>
        <mxCell id="0SsIEOhFhzTk_DGAFsbN-13" value="DiscoverView" style="whiteSpace=wrap;html=1;rounded=0;" vertex="1" parent="1">
          <mxGeometry x="220" y="610" width="120" height="50" as="geometry" />
        </mxCell>
        <mxCell id="0SsIEOhFhzTk_DGAFsbN-15" value="HomeView" style="whiteSpace=wrap;html=1;rounded=0;" vertex="1" parent="1">
          <mxGeometry x="370" y="610" width="120" height="50" as="geometry" />
        </mxCell>
        <mxCell id="0SsIEOhFhzTk_DGAFsbN-26" value="" style="edgeStyle=none;curved=1;rounded=0;orthogonalLoop=1;jettySize=auto;html=1;fontSize=12;startSize=8;endSize=8;exitX=0.5;exitY=1;exitDx=0;exitDy=0;" edge="1" parent="1" source="0SsIEOhFhzTk_DGAFsbN-17" target="0SsIEOhFhzTk_DGAFsbN-25">
          <mxGeometry relative="1" as="geometry" />
        </mxCell>
        <mxCell id="0SsIEOhFhzTk_DGAFsbN-28" value="" style="edgeStyle=none;curved=1;rounded=0;orthogonalLoop=1;jettySize=auto;html=1;fontSize=12;startSize=8;endSize=8;exitX=0.5;exitY=1;exitDx=0;exitDy=0;" edge="1" parent="1" source="0SsIEOhFhzTk_DGAFsbN-17" target="0SsIEOhFhzTk_DGAFsbN-27">
          <mxGeometry relative="1" as="geometry" />
        </mxCell>
        <mxCell id="0SsIEOhFhzTk_DGAFsbN-17" value="ImportSharedDeckView" style="whiteSpace=wrap;html=1;rounded=0;" vertex="1" parent="1">
          <mxGeometry x="740" y="610" width="140" height="50" as="geometry" />
        </mxCell>
        <mxCell id="0SsIEOhFhzTk_DGAFsbN-23" value="" style="edgeStyle=none;curved=1;rounded=0;orthogonalLoop=1;jettySize=auto;html=1;fontSize=12;startSize=8;endSize=8;" edge="1" parent="1" source="0SsIEOhFhzTk_DGAFsbN-19" target="0SsIEOhFhzTk_DGAFsbN-22">
          <mxGeometry relative="1" as="geometry" />
        </mxCell>
        <mxCell id="0SsIEOhFhzTk_DGAFsbN-19" value="OnboardingView" style="whiteSpace=wrap;html=1;rounded=0;" vertex="1" parent="1">
          <mxGeometry y="610" width="120" height="50" as="geometry" />
        </mxCell>
        <mxCell id="0SsIEOhFhzTk_DGAFsbN-22" value="OnboardingCard" style="whiteSpace=wrap;html=1;rounded=0;" vertex="1" parent="1">
          <mxGeometry y="690" width="120" height="50" as="geometry" />
        </mxCell>
        <mxCell id="0SsIEOhFhzTk_DGAFsbN-25" value="DeckView" style="whiteSpace=wrap;html=1;rounded=0;" vertex="1" parent="1">
          <mxGeometry x="700" y="750" width="120" height="50" as="geometry" />
        </mxCell>
        <mxCell id="0SsIEOhFhzTk_DGAFsbN-27" value="ExpandableCard" style="whiteSpace=wrap;html=1;rounded=0;" vertex="1" parent="1">
          <mxGeometry x="840" y="750" width="120" height="50" as="geometry" />
        </mxCell>
      </root>
    </mxGraphModel>
  </diagram>
</mxfile>
